# xmcd
#
# Track frame offsets:
#	150
#	16146
#	27207
#	47145
#	64948
#	87792
#	101631
#	120480
#	144536
#
# Disc length: 2167 seconds
#
# Revision: 1
# Processed by: cddbd v1.5.2PL0 Copyright (c) Steve Scherf et al.
# Submitted via: EasyCDDAExtractor 16.0.9.1
#
DISCID=6f087509
DTITLE=Muddy Waters - B-023  The Londo Muddy Waters Sessions
DYEAR=1900
DGENRE=Blues
TTITLE0=Blind Man Blues
TTITLE1=Key To Highway
TTITLE2=Young Fashioned Ways
TTITLE3=I'm Gonna Be Your The Outskirts Of Town
TTITLE4=Who's Gonna Be Your Sweet Man When I'm Gone
TTITLE5=Walkin' Blues
TTITLE6=I'm Ready
TTITLE7=Sad, Sad Day
TTITLE8=I Don't Know Why
EXTD=
EXTT0=
EXTT1=
EXTT2=
EXTT3=
EXTT4=
EXTT5=
EXTT6=
EXTT7=
EXTT8=
PLAYORDER=
